<svg xmlns="http://www.w3.org/2000/svg" viewBox="-905 496 91.3 89.7" enable-background="new -905 496 91.3 89.7"><path fill="#BB9D6E" d="M-888.9 583c1 .1 2-.6 2.1-1.6-.1 1.1.7 2.1 1.8 2.2 1.1.1 2.1-.7 2.2-1.8.1-1.2.4-4.2.5-5.3h.1c7.2.6 15.2-4.7 16.8-16.1.7-4.9-.6-9.8-3.5-13.7-2-2.7-4.7-4.7-7.7-6 .2-.4.4-.9.5-1.4.2-1.3-.1-2.6-.9-3.6s-1.9-1.7-3.2-1.9c-2.4-.3-4.7 1.2-5.4 3.5-.1.2-.1.4-.1.7-.1.5 0 1 0 1.5l-1.6.2-1.3-3.5c1.3-.9 2.3-2.2 2.7-3.8.2-.8.3-1.6.3-2.4l-.6-8.9c-.1-.8-.3-1.6-.6-2.4l4.8-3.9.3.2c1.7.8 3.6 1 5.4.3l8.4-2.9c2.2-.7 3.9-2.5 4.5-4.7l4.2-.1c.7 1.7 2 3.1 3.8 3.9l8.2 3.4c1.7.7 3.6.7 5.3 0l1.9 2.3c-.4.6-.7 1.2-.9 1.9-.3.9-.3 1.9-.2 2.9l1.2 8.8c.4 2.6 2.2 4.7 4.5 5.6l-.1 2.9c-6.2.2-12.1 3.5-15.5 9.2-1.1 1.8-1.8 3.6-2.3 5.4-2.2 7.7.7 14.5 5.6 17.7l.1.1c-.6.9-2.2 3.5-2.8 4.5-.6.9-.3 2.2.6 2.8.9.6 2.2.3 2.8-.6l-.2.4c-.2.8.1 1.8.9 2.2.9.6 2.2.3 2.8-.6.2-.4 2.2-3.5 2.9-4.6h.1c6.4 3.2 15.9 1.3 21.7-8.6 4.3-7.4 2.8-16.7-3-22.5.4-.3.7-.7 1-1.2.2-.4.4-.7.5-1.1.6-2.2-.3-4.4-2.3-5.6-2.3-1.4-5.3-.6-6.7 1.8-.2.4-.4.7-.5 1.1 0 .1 0 .2-.1.3l-1.5-.4.1-3c2.5-.6 4.5-2.4 5.2-4.9.3-.9.3-1.9.2-2.9l-1.2-8.8c-.5-3.8-4.1-6.5-7.9-6-.6.1-1.3.3-1.8.5l-1.8-2.3c.3-.4.5-.9.7-1.3 1.5-3.6-.3-7.7-3.8-9.2l-8.2-3.4c-1.7-.7-3.6-.7-5.4 0s-3.1 2.1-3.8 3.8c-.1.2-.2.5-.3.8l-.1.5-3.9.1v-.1c-.6-1.8-1.9-3.2-3.5-4-1.7-.8-3.6-1-5.4-.3l-8.4 2.9c-2.2.7-3.9 2.5-4.5 4.7-.4 1.4-.4 2.8.1 4.2.1.3.3.6.4 1l-4.6 3.8c-1.3-.8-2.8-1.2-4.3-1.1-3 .2-5.5 2.2-6.3 5.1-.2.8-.3 1.6-.3 2.4l.6 8.9c.2 3.8 3.5 6.7 7.2 6.6l1.3 3.4c-4.9 2.2-8.8 6.5-10.3 11.8-.2.8-.4 1.6-.5 2.5-1.6 11.3 4.7 18.7 11.7 20.1h.1c-.2 1.3-.5 5-.5 5.5-.2 1.1.6 2 1.7 2.1zm66.5-17.7c-3.4 5.9-10.1 10.1-16.4 7-1.9-1-4.2-.4-5.2 1.2.9-1.7.3-3.9-1.5-5.1-5.8-3.9-5.5-11.8-2.1-17.7 4-6.9 12.9-9.3 19.8-5.3 7.1 4.1 9.4 13 5.4 19.9zm-3.6-24.5c.2-.4.8-.6 1.2-.3.3.2.5.6.4 1 0 .1 0 .1-.1.2-.2.4-.8.6-1.2.3-.3-.3-.5-.8-.3-1.2zm-5.2-20l1.2 8.8c.1.4 0 .8-.1 1.2-.2.7-.6 1.3-1.2 1.7l.1-2.9c0-1.1-.8-2-1.9-2.1-.9 0-1.8.6-2 1.5l-.1.5-.1 2.4c-.3-.4-.6-.9-.7-1.5l-1.2-8.8v-.6l1.4 1.8c.7.9 2 1 2.8.3.9-.7 1-2 .3-2.8l-1.6-2c1.6-.1 2.9 1 3.1 2.5zm-22.7-18.5c.7-.3 1.6-.3 2.3 0l8.2 3.4c1.3.5 2 1.9 1.8 3.2l-1-1.2c-.7-.9-2-1-2.8-.3-.3.3-.6.6-.7 1-.2.6-.1 1.3.4 1.8l1 1.3c-.3 0-.7-.1-1-.2l-8.2-3.4-.5-.3h1.5c1.1 0 2-.9 2-2s-.9-2-2-2h-2.4c.3-.6.8-1 1.4-1.3zm-25.6 3.6l8.4-2.9c.8-.3 1.6-.2 2.3.1.3.2.6.4.9.7h-1.6c-.9 0-1.7.6-1.9 1.5-.1.2-.1.4-.1.6 0 1.1.9 2 2 2h1.6c-.3.4-.8.7-1.3.9l-8.4 2.9c-.2.1-.4.1-.6.1l1.5-1.2c.9-.7 1-2 .3-2.8-.7-.9-2-1-2.8-.3l-2.2 1.8c-.4-1.4.5-2.9 1.9-3.4zm-16.1 24.8l-.6-8.9c-.1-1.6 1.2-3.1 2.8-3.2h.5l-1.4 1.1c-.3.3-.5.6-.7 1-.2.6-.1 1.3.4 1.8.7.9 2 1 2.8.3l1.5-1.2.6 8.7c0 .3 0 .7-.1 1-.1.3-.2.6-.4.8l-.7-2c-.4-1-1.5-1.6-2.6-1.2-.6.2-1.1.7-1.2 1.3-.1.4-.1.8 0 1.2l.6 1.6c-.8-.3-1.4-1.2-1.5-2.3zm14 8.5c-.1-.1-.2-.3-.2-.6.1-.5.5-.8 1-.7.3 0 .5.2.6.3.1.1.2.3.2.6v.1c-.1.4-.5.7-1 .6-.4-.1-.6-.2-.6-.3zm-16.4 16.6c1.1-7.9 8.5-13.5 16.4-12.3 3.8.5 7.2 2.5 9.6 5.6 2.3 3.1 3.3 6.9 2.8 10.8-1.2 8.9-7.3 13.1-12.5 12.6-2.1-.2-4 1.2-4.3 3.1.2-1.9-1.2-3.7-3.3-4.2-7-1.4-9.7-8.9-8.7-15.6z"/></svg>