<svg xmlns="http://www.w3.org/2000/svg" viewBox="-894.2 521.2 69.7 40.2" enable-background="new -894.2 521.2 69.7 40.2"><path fill="#BB9D6E" d="M-842 544.3c3.2-1 6.6-2.3 9.8-4 5.2-3 7.8.1 5.9 4.8-1.6 4.5-10.3 12.8-17.9 14.7-2.9-2-8.6-3.4-15.2-3.5-6.6 0-12.3 1.4-15.2 3.5-7.6-1.9-16.3-10.2-17.9-14.7-1.9-4.7.7-7.8 5.9-4.8 3.2 1.8 6.6 3.1 9.8 4 6.9 2.1 13.3 2.6 16.6 2.6h1.8c3.5-.1 9.7-.6 16.4-2.6z"/><path fill="#BB9D6E" d="M-851.3 523.3c2.7 1.4 7.1 14 8.8 19.3-6.5 1.9-12.5 2.4-15.7 2.4h-1.8c-3.2 0-9.3-.5-16.1-2.4 1.7-5.2 6.1-17.9 8.8-19.3 3.1-1.5 5.8 1 7.9 1.3h-.8.5.5c2.1-.3 4.8-2.9 7.9-1.3zm-1.1 9.8c0-.6-.5-1-1-1s-.9.4-1 .9l-3.1-.5-1.4-2.8c.4-.2.6-.5.6-.9 0-.6-.5-1-1-1-.6 0-1 .5-1 1 0 .4.3.8.6.9l-1.4 2.8-3.2.5c-.1-.5-.5-.9-1-.9-.6 0-1 .5-1 1 0 .6.5 1 1 1 .3 0 .7-.2.8-.4l2.2 2.2-.6 3.3c-.1-.1-.3-.1-.4-.1-.6 0-1 .5-1 1s.5 1 1 1c.6 0 1-.5 1-1 0-.2-.1-.4-.2-.6l3-1.6 3 1.6c-.1.2-.2.4-.2.6 0 .6.5 1 1 1 .6 0 1-.5 1-1s-.5-1-1-1c-.1 0-.3 0-.4.1l-.6-3.3 2.2-2.2c.2.3.5.4.8.4.9 0 1.3-.4 1.3-1z"/></svg>